PathFileType	4	(X/Y/Z)	 2.8Hzhigh3min.trc
DataRate	CameraRate	NumFrames	NumMarkers	Units	OrigDataRate	OrigDataStartFrame	OrigNumFrames
200	200	11	35	m	200	376	1000
Frame#	Time	C7			LSH			RSH			MAN			RASI			LASI			HIPR			HIPL			RPSI			LPSI			COX			RTHI1			RTHI2			RTHI3			RTHI4			RSHA1			RSHA2			RSHA3			RSHA4			RHEEL			RMET5			RMET1			RTOE			LTHI1			LTHI2			LTHI3			LTHI4			LSHA1			LSHA2			LSHA3			LSHA4			LHEEL			LMET5			LMET1			LTOE			
		X1	Y1	Z1	X2	Y2	Z2	X3	Y3	Z3	X4	Y4	Z4	X5	Y5	Z5	X6	Y6	Z6	X7	Y7	Z7	X8	Y8	Z8	X9	Y9	Z9	X10	Y10	Z10	X11	Y11	Z11	X12	Y12	Z12	X13	Y13	Z13	X14	Y14	Z14	X15	Y15	Z15	X16	Y16	Z16	X17	Y17	Z17	X18	Y18	Z18	X19	Y19	Z19	X20	Y20	Z20	X21	Y21	Z21	X22	Y22	Z22	X23	Y23	Z23	X24	Y24	Z24	X25	Y25	Z25	X26	Y26	Z26	X27	Y27	Z27	X28	Y28	Z28	X29	Y29	Z29	X30	Y30	Z30	X31	Y31	Z31	X32	Y32	Z32	X33	Y33	Z33	X34	Y34	Z34	X35	Y35	Z35	
376	1.8800	-0.312967	1.663779	-0.494326	-0.281134	1.650779	-0.716591	-0.243456	1.649339	-0.292629	-0.160389	1.609883	-0.505542	-0.135873	1.162794	-0.378195	-0.127330	1.158388	-0.594868	-0.194597	1.214958	-0.332595	-0.195421	1.210361	-0.656250	-0.318084	1.188852	-0.433923	-0.320735	1.182922	-0.548551	-0.326221	1.194053	-0.487872	-0.238753	0.907373	-0.300379	-0.228589	0.849453	-0.287689	-0.164408	0.859871	-0.280036	-0.166986	0.919949	-0.293339	-0.329748	0.467005	-0.280447	-0.342219	0.426275	-0.287430	-0.282800	0.414270	-0.281362	-0.274590	0.453402	-0.278736	-0.414505	0.134498	-0.352422	-0.261042	0.029323	-0.282706	-0.216865	0.042317	-0.367026	-0.190034	0.032509	-0.365583	-0.204493	0.896848	-0.703484	-0.188925	0.837582	-0.711145	-0.125659	0.847754	-0.703515	-0.132331	0.907126	-0.695408	-0.284257	0.440062	-0.717660	-0.300755	0.403042	-0.716763	-0.241717	0.384279	-0.705319	-0.232583	0.427428	-0.708012	-0.418362	0.136722	-0.656758	-0.264999	0.029684	-0.711548	-0.219336	0.040365	-0.631480	-0.193677	0.034645	-0.636953	
377	1.8850	-0.313570	1.667253	-0.494505	-0.281842	1.654721	-0.716399	-0.244313	1.653401	-0.292970	-0.161128	1.614119	-0.505629	-0.134978	1.166748	-0.378140	-0.126403	1.162369	-0.594722	-0.193627	1.219317	-0.332771	-0.194115	1.215103	-0.656245	-0.317166	1.193267	-0.433979	-0.319636	1.187396	-0.548762	-0.325276	1.198588	-0.487996	-0.238846	0.911134	-0.300678	-0.229185	0.853309	-0.287564	-0.164968	0.863405	-0.279786	-0.167223	0.923484	-0.293093	-0.330898	0.470009	-0.280681	-0.342980	0.429189	-0.287593	-0.283540	0.417656	-0.281037	-0.275666	0.456854	-0.278428	-0.412324	0.137412	-0.352059	-0.260599	0.029952	-0.283058	-0.216934	0.042872	-0.366804	-0.190225	0.033475	-0.365099	-0.204543	0.900900	-0.703721	-0.189204	0.841532	-0.711342	-0.125918	0.851424	-0.703516	-0.132384	0.910853	-0.695326	-0.284874	0.443363	-0.717915	-0.301027	0.406179	-0.717039	-0.241780	0.387936	-0.705901	-0.233046	0.431157	-0.708525	-0.416375	0.139402	-0.657978	-0.264331	0.030506	-0.711252	-0.219783	0.041004	-0.631739	-0.194272	0.035878	-0.637483	
378	1.8900	-0.314132	1.670570	-0.494688	-0.282516	1.658474	-0.716190	-0.245185	1.657291	-0.293330	-0.161837	1.618186	-0.505698	-0.134118	1.170511	-0.378098	-0.125522	1.166173	-0.594598	-0.192692	1.223425	-0.332955	-0.192879	1.219645	-0.656256	-0.316298	1.197542	-0.434070	-0.318585	1.191715	-0.549000	-0.324370	1.203008	-0.488144	-0.238991	0.914741	-0.300806	-0.229720	0.857005	-0.287449	-0.165464	0.866789	-0.279577	-0.167416	0.926872	-0.292882	-0.331970	0.472847	-0.280908	-0.343658	0.431915	-0.287777	-0.284197	0.420877	-0.280747	-0.276658	0.460149	-0.278162	-0.410118	0.140154	-0.351783	-0.260118	0.030705	-0.283428	-0.217002	0.043605	-0.366583	-0.190456	0.034625	-0.364559	-0.204609	0.904759	-0.703926	-0.189494	0.845297	-0.711503	-0.126184	0.854923	-0.703486	-0.132459	0.914403	-0.695238	-0.285417	0.446494	-0.718129	-0.301228	0.409146	-0.717294	-0.241786	0.391430	-0.706428	-0.233446	0.434719	-0.708966	-0.414413	0.141953	-0.659189	-0.263575	0.031441	-0.710956	-0.220231	0.041656	-0.631957	-0.194862	0.037112	-0.637939	
379	1.8950	-0.314651	1.673699	-0.494868	-0.283129	1.662023	-0.715982	-0.246066	1.660983	-0.293705	-0.162518	1.622064	-0.505751	-0.133307	1.174057	-0.378079	-0.124704	1.169773	-0.594492	-0.191801	1.227269	-0.333145	-0.191711	1.223941	-0.656300	-0.315487	1.201646	-0.434186	-0.317595	1.195860	-0.549256	-0.323518	1.207271	-0.488307	-0.239140	0.918171	-0.300863	-0.230196	0.860510	-0.287347	-0.165902	0.869991	-0.279408	-0.167568	0.930082	-0.292700	-0.332949	0.475516	-0.281086	-0.344251	0.434461	-0.287960	-0.284773	0.423917	-0.280497	-0.277570	0.463283	-0.277905	-0.408108	0.142770	-0.351402	-0.259624	0.031600	-0.283814	-0.217074	0.044486	-0.366314	-0.190703	0.035931	-0.363962	-0.204691	0.908402	-0.704095	-0.189795	0.848856	-0.711620	-0.126464	0.858226	-0.703429	-0.132545	0.917753	-0.695139	-0.285877	0.449429	-0.718309	-0.301352	0.411930	-0.717534	-0.241730	0.394729	-0.706895	-0.233771	0.438102	-0.709334	-0.412500	0.144361	-0.660387	-0.262724	0.032483	-0.710678	-0.220633	0.042325	-0.632139	-0.195399	0.038308	-0.638325	
380	1.9000	-0.315127	1.676617	-0.495041	-0.283717	1.665341	-0.715755	-0.246944	1.664466	-0.294088	-0.163156	1.625725	-0.505786	-0.132547	1.177361	-0.378087	-0.123952	1.173159	-0.594402	-0.190952	1.230839	-0.333335	-0.190639	1.227936	-0.656362	-0.314733	1.205551	-0.434329	-0.316678	1.199801	-0.549523	-0.322713	1.211354	-0.488480	-0.239278	0.921419	-0.300877	-0.230620	0.863793	-0.287283	-0.166280	0.873003	-0.279288	-0.167678	0.933108	-0.292559	-0.333827	0.477996	-0.281268	-0.344755	0.436803	-0.288144	-0.285263	0.426763	-0.280291	-0.278398	0.466219	-0.277719	-0.406206	0.145245	-0.351054	-0.259131	0.032648	-0.284214	-0.217102	0.045528	-0.366006	-0.190927	0.037355	-0.363293	-0.204786	0.911800	-0.704225	-0.190100	0.852188	-0.711691	-0.126756	0.861306	-0.703337	-0.132640	0.920874	-0.695038	-0.286250	0.452161	-0.718460	-0.301394	0.414529	-0.717759	-0.241611	0.397826	-0.707293	-0.234020	0.441272	-0.709627	-0.410659	0.146620	-0.661572	-0.261775	0.033616	-0.710438	-0.220932	0.043013	-0.632298	-0.195831	0.039463	-0.638656	
381	1.9050	-0.315563	1.679316	-0.495204	-0.284255	1.668451	-0.715526	-0.247791	1.667701	-0.294467	-0.163752	1.629152	-0.505804	-0.131848	1.180410	-0.378122	-0.123272	1.176310	-0.594330	-0.190157	1.234144	-0.333527	-0.189666	1.231586	-0.656430	-0.314046	1.209240	-0.434477	-0.315845	1.203514	-0.549789	-0.321971	1.215230	-0.488640	-0.239416	0.924478	-0.300855	-0.231001	0.866853	-0.287265	-0.166599	0.875816	-0.279209	-0.167764	0.935927	-0.292457	-0.334594	0.480277	-0.281452	-0.345172	0.438954	-0.288331	-0.285660	0.429401	-0.280123	-0.279107	0.468930	-0.277611	-0.404447	0.147567	-0.350686	-0.258648	0.033843	-0.284614	-0.217088	0.046684	-0.365632	-0.191080	0.038857	-0.362562	-0.204893	0.914932	-0.704317	-0.190405	0.855261	-0.711716	-0.127051	0.864144	-0.703213	-0.132743	0.923746	-0.694936	-0.286520	0.454674	-0.718588	-0.301351	0.416925	-0.717973	-0.241422	0.400688	-0.707616	-0.234182	0.444203	-0.709842	-0.408914	0.148709	-0.662724	-0.260726	0.034821	-0.710269	-0.221087	0.043733	-0.632444	-0.196106	0.040573	-0.638934	
382	1.9100	-0.315959	1.681791	-0.495356	-0.284733	1.671315	-0.715315	-0.248596	1.670677	-0.294838	-0.164306	1.632327	-0.505812	-0.131220	1.183207	-0.378187	-0.122663	1.179211	-0.594271	-0.189422	1.237201	-0.333718	-0.188799	1.234869	-0.656498	-0.313436	1.212687	-0.434614	-0.315103	1.206981	-0.550049	-0.321291	1.218869	-0.488803	-0.239576	0.927336	-0.300791	-0.231350	0.869683	-0.287286	-0.166885	0.878419	-0.279182	-0.167833	0.938535	-0.292391	-0.335244	0.482352	-0.281651	-0.345497	0.440915	-0.288515	-0.285967	0.431827	-0.280001	-0.279679	0.471409	-0.277567	-0.402871	0.149720	-0.350278	-0.258170	0.035168	-0.284988	-0.216983	0.047916	-0.365230	-0.191128	0.040387	-0.361818	-0.205003	0.917786	-0.704371	-0.190704	0.858064	-0.711699	-0.127344	0.866720	-0.703056	-0.132848	0.926350	-0.694830	-0.286675	0.456966	-0.718702	-0.301217	0.419110	-0.718173	-0.241167	0.403300	-0.707854	-0.234254	0.446888	-0.709974	-0.407294	0.150611	-0.663847	-0.259591	0.036086	-0.710173	-0.221061	0.044498	-0.632586	-0.196175	0.041644	-0.639156	
383	1.9150	-0.316318	1.684029	-0.495498	-0.285157	1.673931	-0.715117	-0.249346	1.673384	-0.295192	-0.164817	1.635237	-0.505812	-0.130673	1.185744	-0.378275	-0.122132	1.181843	-0.594227	-0.188754	1.240008	-0.333904	-0.188032	1.237779	-0.656567	-0.312900	1.215870	-0.434746	-0.314460	1.210186	-0.550296	-0.320680	1.222232	-0.488962	-0.239710	0.929959	-0.300766	-0.231674	0.872258	-0.287360	-0.167140	0.880790	-0.279204	-0.167889	0.940914	-0.292360	-0.335766	0.484213	-0.281865	-0.345726	0.442688	-0.288675	-0.286176	0.434024	-0.279924	-0.280144	0.473660	-0.277560	-0.401528	0.151673	-0.349830	-0.257697	0.036624	-0.285278	-0.216781	0.049201	-0.364795	-0.191032	0.041944	-0.361084	-0.205116	0.920343	-0.704402	-0.190990	0.860579	-0.711640	-0.127632	0.869035	-0.702876	-0.132954	0.928686	-0.694713	-0.286719	0.459026	-0.718811	-0.300991	0.421073	-0.718366	-0.240848	0.405649	-0.707998	-0.234237	0.449302	-0.710023	-0.405827	0.152310	-0.664917	-0.258379	0.037415	-0.710168	-0.220823	0.045340	-0.632739	-0.196014	0.042708	-0.639350	
384	1.9200	-0.316635	1.686042	-0.495634	-0.285541	1.676285	-0.714926	-0.250029	1.675822	-0.295524	-0.165275	1.637872	-0.505808	-0.130205	1.188017	-0.378380	-0.121677	1.184199	-0.594196	-0.188156	1.242561	-0.334084	-0.187377	1.240320	-0.656623	-0.312447	1.218777	-0.434866	-0.313919	1.213101	-0.550530	-0.320144	1.225303	-0.489113	-0.239817	0.932331	-0.300809	-0.231973	0.874579	-0.287478	-0.167365	0.882928	-0.279276	-0.167935	0.943063	-0.292375	-0.336152	0.485863	-0.282080	-0.345862	0.444293	-0.288772	-0.286284	0.435988	-0.279888	-0.280459	0.475661	-0.277582	-0.400355	0.153381	-0.349461	-0.257181	0.038192	-0.285439	-0.216410	0.050607	-0.364381	-0.190773	0.043544	-0.360384	-0.205228	0.922606	-0.704404	-0.191257	0.862796	-0.711541	-0.127900	0.871076	-0.702668	-0.133062	0.930746	-0.694592	-0.286652	0.460845	-0.718915	-0.300684	0.422803	-0.718556	-0.240474	0.407731	-0.708040	-0.234134	0.451426	-0.709986	-0.404538	0.153783	-0.665910	-0.257103	0.038809	-0.710265	-0.220359	0.046276	-0.632920	-0.195604	0.043807	-0.639526	
385	1.9250	-0.316910	1.687831	-0.495767	-0.285864	1.678401	-0.714759	-0.250645	1.677968	-0.295831	-0.165692	1.640223	-0.505803	-0.129825	1.190034	-0.378497	-0.121303	1.186264	-0.594180	-0.187633	1.244848	-0.334255	-0.186823	1.242512	-0.656676	-0.312086	1.221395	-0.434972	-0.313484	1.215712	-0.550747	-0.319694	1.228029	-0.489243	-0.239905	0.934432	-0.300918	-0.232244	0.876644	-0.287629	-0.167563	0.884818	-0.279399	-0.167972	0.944970	-0.292432	-0.336395	0.487315	-0.282251	-0.345889	0.445708	-0.288871	-0.286293	0.437711	-0.279883	-0.280602	0.477413	-0.277586	-0.399455	0.154809	-0.349108	-0.256592	0.039865	-0.285434	-0.215911	0.052089	-0.363940	-0.190334	0.045204	-0.359739	-0.205339	0.924564	-0.704377	-0.191503	0.864706	-0.711401	-0.128145	0.872839	-0.702433	-0.133168	0.932526	-0.694459	-0.286471	0.462423	-0.719015	-0.300308	0.424296	-0.718744	-0.240058	0.409529	-0.707984	-0.233948	0.453257	-0.709863	-0.403439	0.155001	-0.666793	-0.255776	0.040275	-0.710476	-0.219670	0.047328	-0.633144	-0.194934	0.044976	-0.639714	
386	1.9300	-0.317143	1.689389	-0.495900	-0.286135	1.680230	-0.714619	-0.251197	1.679821	-0.296115	-0.166060	1.642284	-0.505800	-0.129536	1.191790	-0.378620	-0.121009	1.188037	-0.594175	-0.187188	1.246863	-0.334422	-0.186375	1.244382	-0.656732	-0.311814	1.223700	-0.435073	-0.313151	1.218007	-0.550955	-0.319329	1.230389	-0.489357	-0.239966	0.936254	-0.301084	-0.232479	0.878434	-0.287789	-0.167729	0.886456	-0.279572	-0.167990	0.946632	-0.292532	-0.336488	0.488585	-0.282373	-0.345819	0.446945	-0.288925	-0.286205	0.439186	-0.279912	-0.280607	0.478913	-0.277597	-0.398838	0.155974	-0.348826	-0.255915	0.041642	-0.285249	-0.215258	0.053668	-0.363476	-0.189714	0.046940	-0.359139	-0.205444	0.926218	-0.704315	-0.191723	0.866317	-0.711219	-0.128364	0.874330	-0.702173	-0.133261	0.934030	-0.694312	-0.286189	0.463753	-0.719101	-0.299867	0.425568	-0.718917	-0.239622	0.411044	-0.707835	-0.233688	0.454802	-0.709656	-0.402549	0.155951	-0.667560	-0.254413	0.041810	-0.710788	-0.218761	0.048502	-0.633427	-0.194018	0.046237	-0.639937	
